<svg xmlns="http://www.w3.org/2000/svg" viewBox="0 0 241.05 103.41"><defs><style>.cls-1{fill:#6ec72e;}.cls-2{fill:#2f97da;}</style></defs><g id="Layer_2" data-name="Layer 2"><g id="Layer_1-2" data-name="Layer 1"><path class="cls-1" d="M137.64,59V44.44c.11.17.23.1.29,0a3.57,3.57,0,0,1,2.72-1.85c1.27-.28,2.53-.67,3.81-.93a1,1,0,0,0,.85-.83,42.72,42.72,0,0,1,5.15-12.52,1,1,0,0,0,0-1.26c-.73-1.13-1.41-2.29-2.08-3.46a3.08,3.08,0,0,1,.56-4.27q4-4,8-8c1.39-1.39,2.63-1.53,4.36-.52,1.1.64,2.21,1.27,3.28,2a1.16,1.16,0,0,0,1.44,0,44.71,44.71,0,0,1,9.6-4.36c1.17-.38,2.73-.23,3.44-1.16s.71-2.34,1-3.55c.31-1.4.65-2.76,2.09-3.48.11-.06,0-.16-.06-.22h14.55c-.18.11-.09.23,0,.29A3.54,3.54,0,0,1,198.49,3c.28,1.28.66,2.54.93,3.82a1,1,0,0,0,.83.84,42.59,42.59,0,0,1,12.59,5.2,1,1,0,0,0,1.18,0q1.71-1.07,3.45-2.07a3.11,3.11,0,0,1,4.28.54q4,4,8,8a3.13,3.13,0,0,1,.55,4.42c-.67,1.16-1.35,2.31-2.07,3.44a.9.9,0,0,0,0,1.08,42.5,42.5,0,0,1,5.17,12.54,1.06,1.06,0,0,0,.92.89c1.34.28,2.66.66,4,1a3.33,3.33,0,0,1,2.35,1.55c.08.13.19.42.39.07v15c-.11-.27-.27-.15-.34,0A3.88,3.88,0,0,1,237.83,61c-1.16.29-2.33.6-3.51.82a1.05,1.05,0,0,0-.92.89,42.23,42.23,0,0,1-5.17,12.54.94.94,0,0,0,.05,1.16c.7,1.1,1.36,2.23,2,3.36a3.14,3.14,0,0,1-.54,4.42q-4,4-8,8a3.11,3.11,0,0,1-4.34.54c-1.1-.63-2.21-1.27-3.27-2a1.23,1.23,0,0,0-1.52,0,41.71,41.71,0,0,1-12.17,5,1.32,1.32,0,0,0-1.07,1.09c-.69,2.29-.57,5-2.78,6.6H182.07c.17-.13.05-.23-.06-.28a3.47,3.47,0,0,1-1.8-2.63c-.26-1.2-.68-2.38-.89-3.59-.13-.77-.49-1-1.19-1.2a43,43,0,0,1-13.68-6.06c.93-1,1.86-1.93,2.81-2.88l10.51-10.45a26.54,26.54,0,0,0,19.77,1.34,27.13,27.13,0,0,0,18.72-29.91,26.57,26.57,0,0,0-8-15.61,27.2,27.2,0,0,0-43.48,31.24c-.11.13-.2.27-.32.39L152,76.22a5.79,5.79,0,0,1-.55.43,44.22,44.22,0,0,1-6.08-13.85,1.2,1.2,0,0,0-1.09-1.07c-1.15-.21-2.28-.57-3.42-.83A3.73,3.73,0,0,1,137.93,59C137.87,58.87,137.75,58.8,137.64,59Z"/><path class="cls-2" d="M177.77,76.32,167.26,86.77c-.95,1-1.88,1.92-2.81,2.89-.28.24-.57.46-.83.72l-9.86,9.85a9.85,9.85,0,0,1-4.47,2.79c-.18,0-.48,0-.34.39h-4.44c.14-.35-.16-.34-.34-.39a8.83,8.83,0,0,1-6.11-6.1c-.07-.2-.07-.2-.42-.37V92.1c.35.19.34-.12.39-.3A10.09,10.09,0,0,1,141,87.21q3.93-3.9,7.82-7.82c.9-.9,1.77-1.83,2.65-2.74a5.79,5.79,0,0,0,.55-.43l12.45-12.45c.12-.12.21-.26.32-.39,1.22-1.21,2.4-2.45,3.68-3.59a1.89,1.89,0,0,0,.59-2.25c-2.06-7.71-.5-14.65,5-20.45,5.68-6,12.75-7.64,20.7-5.92A3,3,0,0,1,197.13,34,3.43,3.43,0,0,1,196,36.53c-2.36,2.39-4.89,4.63-7.06,7.2a5.85,5.85,0,0,0,.87,8.29,6,6,0,0,0,8.37-.59c2.21-2.17,4.36-4.4,6.59-6.55a3,3,0,0,1,5.18,1.47,21.45,21.45,0,0,1,0,10.56c-1.68,6.17-5.11,11-10.94,13.85A21.53,21.53,0,0,1,183.21,72c-.43-.12-.85-.44-1.29,0C180.55,73.49,179.16,74.9,177.77,76.32Z"/><path class="cls-2" d="M26.78,22.64a11.05,11.05,0,0,1-3.05,3.87,13.17,13.17,0,0,1-4.53,2.34,19.21,19.21,0,0,1-5.56.78H7.75V40.2H0V5H14.4a16.86,16.86,0,0,1,5.66.88,12.15,12.15,0,0,1,4.23,2.49A10.81,10.81,0,0,1,27,12.19a12.64,12.64,0,0,1,.94,5v.1A12.36,12.36,0,0,1,26.78,22.64ZM20,17.3a4.83,4.83,0,0,0-1.68-4A7.19,7.19,0,0,0,13.74,12h-6V22.74h6.14a6.27,6.27,0,0,0,4.53-1.54A5,5,0,0,0,20,17.4Z"/><path class="cls-2" d="M48.68,20.72a7.89,7.89,0,0,0-6,2.32q-2.19,2.31-2.19,7.2v10H32.82v-27h7.65v5.44a11.21,11.21,0,0,1,3.17-4.43,7.72,7.72,0,0,1,5.44-1.51v8Z"/><path class="cls-2" d="M80.64,32.23a14,14,0,0,1-3.07,4.45,14.61,14.61,0,0,1-4.63,3,15.08,15.08,0,0,1-5.84,1.11,15.3,15.3,0,0,1-5.79-1.08,14.4,14.4,0,0,1-4.61-3,13.94,13.94,0,0,1-3-4.43,13.54,13.54,0,0,1-1.11-5.47v-.1a13.53,13.53,0,0,1,1.11-5.46,13.9,13.9,0,0,1,3.07-4.45,14.5,14.5,0,0,1,4.63-3,15,15,0,0,1,5.84-1.11A15.3,15.3,0,0,1,73,13.8a13.85,13.85,0,0,1,7.65,7.4,13.53,13.53,0,0,1,1.11,5.46v.1A13.54,13.54,0,0,1,80.64,32.23ZM74.2,26.76a7.9,7.9,0,0,0-.51-2.84,7.07,7.07,0,0,0-1.46-2.37A7.22,7.22,0,0,0,70,19.92a6.69,6.69,0,0,0-2.87-.61,7.22,7.22,0,0,0-2.95.58A6.71,6.71,0,0,0,62,21.48a7,7,0,0,0-1.38,2.34,8.34,8.34,0,0,0-.48,2.84v.1a8.13,8.13,0,0,0,.5,2.85,7.26,7.26,0,0,0,3.7,4,6.77,6.77,0,0,0,2.9.6,7,7,0,0,0,2.94-.58,6.35,6.35,0,0,0,2.19-1.58,6.89,6.89,0,0,0,1.39-2.34,8.36,8.36,0,0,0,.48-2.85Z"/><path class="cls-2" d="M103.89,40.2l-5.43-8.4L93,40.2H85l9.46-13.69L85.37,13.22h8.2l5,7.86,5.08-7.86h8l-9.12,13.14L112.1,40.2Z"/><path class="cls-2" d="M132,40.86a21,21,0,0,1-1.61,3.5,9.86,9.86,0,0,1-1.89,2.34A6.45,6.45,0,0,1,126.14,48a10.57,10.57,0,0,1-3,.4,12.3,12.3,0,0,1-3.72-.51,14.25,14.25,0,0,1-3.07-1.35L118.89,41a8.75,8.75,0,0,0,1.64.75,4.87,4.87,0,0,0,1.64.31,2.88,2.88,0,0,0,1.58-.38,3.32,3.32,0,0,0,1.08-1.39L114.26,13.22h8.11l6.14,18.38,5.89-18.38h7.95Z"/><path class="cls-1" d="M61.43,60.87V79.93H56.18V60.87H48.9V56H68.71v4.85Z"/><path class="cls-1" d="M90.36,74.51a9.63,9.63,0,0,1-2.08,3,10.06,10.06,0,0,1-7.11,2.8,10.29,10.29,0,0,1-3.92-.74,9.67,9.67,0,0,1-3.13-2,9.38,9.38,0,0,1-2.06-3,9,9,0,0,1-.76-3.7v-.07a9.06,9.06,0,0,1,.76-3.71,9.43,9.43,0,0,1,2.08-3,9.93,9.93,0,0,1,3.14-2,10.27,10.27,0,0,1,4-.75,10.37,10.37,0,0,1,3.93.74,9.63,9.63,0,0,1,3.12,2,9.3,9.3,0,0,1,2.07,3,9.17,9.17,0,0,1,.75,3.7v.07A9.17,9.17,0,0,1,90.36,74.51ZM86,70.81a5.59,5.59,0,0,0-.34-1.93,5,5,0,0,0-1-1.61,5.18,5.18,0,0,0-1.54-1.11,4.63,4.63,0,0,0-2-.41,4.81,4.81,0,0,0-2,.4,4.37,4.37,0,0,0-1.49,1.07,4.89,4.89,0,0,0-.94,1.59,5.59,5.59,0,0,0-.32,1.93v.07a5.37,5.37,0,0,0,.34,1.93,4.89,4.89,0,0,0,1,1.6,4.77,4.77,0,0,0,1.52,1.11,4.44,4.44,0,0,0,2,.41,4.86,4.86,0,0,0,2-.39,4.32,4.32,0,0,0,1.48-1.08,4.58,4.58,0,0,0,.94-1.58A5.63,5.63,0,0,0,86,70.88Z"/><path class="cls-1" d="M113,74.51a9.47,9.47,0,0,1-2.08,3,10.1,10.1,0,0,1-3.14,2,10.27,10.27,0,0,1-4,.75,10.37,10.37,0,0,1-3.93-.74,9.52,9.52,0,0,1-3.12-2,9.41,9.41,0,0,1-2.07-3,9.17,9.17,0,0,1-.75-3.7v-.07a9.21,9.21,0,0,1,.75-3.71,9.43,9.43,0,0,1,2.08-3A10,10,0,0,1,100,62a10.82,10.82,0,0,1,7.89,0A9.67,9.67,0,0,1,111,64,9.43,9.43,0,0,1,113,67a9.17,9.17,0,0,1,.76,3.7v.07A9.17,9.17,0,0,1,113,74.51Zm-4.37-3.7a5.37,5.37,0,0,0-.34-1.93,5,5,0,0,0-1-1.61,4.94,4.94,0,0,0-1.54-1.11,4.62,4.62,0,0,0-1.94-.41,4.86,4.86,0,0,0-2,.4,4.47,4.47,0,0,0-1.49,1.07,4.69,4.69,0,0,0-.93,1.59,5.59,5.59,0,0,0-.33,1.93v.07a5.37,5.37,0,0,0,.34,1.93,4.89,4.89,0,0,0,1,1.6A4.77,4.77,0,0,0,102,75.45a4.48,4.48,0,0,0,2,.41,4.81,4.81,0,0,0,2-.39,4.36,4.36,0,0,0,1.49-1.08,4.74,4.74,0,0,0,.94-1.58,5.88,5.88,0,0,0,.32-1.93Z"/><path class="cls-1" d="M117.78,79.93V55H123V79.93Z"/></g></g></svg>